<?xml version="1.0" encoding="UTF-8" standalone="no"?>
<svg
   version="1.1"
   width="2048"
   height="2048"
   id="svg622"
   sodipodi:docname="Chess_Pieces_Sprite.svg"
   inkscape:version="1.2 (dc2aeda, 2022-05-15)"
   inkscape:export-filename="pieces.png"
   inkscape:export-xdpi="96"
   inkscape:export-ydpi="96"
   xmlns:inkscape="http://www.inkscape.org/namespaces/inkscape"
   xmlns:sodipodi="http://sodipodi.sourceforge.net/DTD/sodipodi-0.dtd"
   xmlns="http://www.w3.org/2000/svg"
   xmlns:svg="http://www.w3.org/2000/svg">
  <defs
     id="defs626" />
  <sodipodi:namedview
     id="namedview624"
     pagecolor="#ffffff"
     bordercolor="#666666"
     borderopacity="1.0"
     inkscape:showpageshadow="2"
     inkscape:pageopacity="0.0"
     inkscape:pagecheckerboard="0"
     inkscape:deskcolor="#d1d1d1"
     showgrid="false"
     inkscape:zoom="0.26584401"
     inkscape:cx="844.48021"
     inkscape:cy="867.04983"
     inkscape:window-width="1440"
     inkscape:window-height="755"
     inkscape:window-x="0"
     inkscape:window-y="25"
     inkscape:window-maximized="1"
     inkscape:current-layer="svg622" />
  <!-- white king //-->
  <!-- white queen //-->
  <!-- white bishop //-->
  <!-- white knight //-->
  <!-- white rook //-->
  <!-- white pawn //-->
  <!-- black king //-->
  <!-- black queen //-->
  <!-- black bishop //-->
  <!-- black knight //-->
  <!-- black rook //-->
  <!-- black pawn //-->
  <g
     style="fill:none;fill-opacity:1;fill-rule:evenodd;stroke:#000000;stroke-width:1.5;stroke-linecap:round;stroke-linejoin:round;stroke-miterlimit:4;stroke-dasharray:none;stroke-opacity:1"
     id="g464"
     transform="scale(11.377778)">
    <path
       d="M 22.5,11.63 V 6"
       style="fill:none;stroke:#000000;stroke-linejoin:miter"
       id="path450" />
    <path
       d="m 20,8 h 5"
       style="fill:none;stroke:#000000;stroke-linejoin:miter"
       id="path452" />
    <path
       d="m 22.5,25 c 0,0 4.5,-7.5 3,-10.5 0,0 -1,-2.5 -3,-2.5 -2,0 -3,2.5 -3,2.5 -1.5,3 3,10.5 3,10.5"
       style="fill:#ffffff;stroke:#000000;stroke-linecap:butt;stroke-linejoin:miter"
       id="path454" />
    <path
       d="m 11.5,37 c 5.5,3.5 15.5,3.5 21,0 v -7 c 0,0 9,-4.5 6,-10.5 -4,-6.5 -13.5,-3.5 -16,4 V 27 23.5 C 19,16 9.5,13 6.5,19.5 c -3,6 5,10 5,10 z"
       style="fill:#ffffff;stroke:#000000"
       id="path456" />
    <path
       d="M 11.5,30 C 17,27 27,27 32.5,30"
       style="fill:none;stroke:#000000"
       id="path458" />
    <path
       d="m 11.5,33.5 c 5.5,-3 15.5,-3 21,0"
       style="fill:none;stroke:#000000"
       id="path460" />
    <path
       d="M 11.5,37 C 17,34 27,34 32.5,37"
       style="fill:none;stroke:#000000"
       id="path462" />
  </g>
  <g
     style="fill:#ffffff;fill-opacity:1;fill-rule:evenodd;stroke:#000000;stroke-width:1.5;stroke-linecap:round;stroke-linejoin:round;stroke-miterlimit:4;stroke-dasharray:none;stroke-opacity:1"
     transform="matrix(11.377778,0,0,11.377778,512.00001,0)"
     id="g484">
    <path
       d="m 9,13 a 2,2 0 1 1 -4,0 2,2 0 1 1 4,0 z"
       transform="translate(-1,-1)"
       id="path466" />
    <path
       d="m 9,13 a 2,2 0 1 1 -4,0 2,2 0 1 1 4,0 z"
       transform="translate(15.5,-5.5)"
       id="path468" />
    <path
       d="m 9,13 a 2,2 0 1 1 -4,0 2,2 0 1 1 4,0 z"
       transform="translate(32,-1)"
       id="path470" />
    <path
       d="m 9,13 a 2,2 0 1 1 -4,0 2,2 0 1 1 4,0 z"
       transform="translate(7,-4.5)"
       id="path472" />
    <path
       d="m 9,13 a 2,2 0 1 1 -4,0 2,2 0 1 1 4,0 z"
       transform="translate(24,-4)"
       id="path474" />
    <path
       d="m 9,26 c 8.5,-1.5 21,-1.5 27,0 L 38,14 31,25 V 11 l -5.5,13.5 -3,-15 -3,15 -5.5,-14 V 25 L 7,14 Z"
       style="stroke-linecap:butt"
       id="path476" />
    <path
       d="m 9,26 c 0,2 1.5,2 2.5,4 1,1.5 1,1 0.5,3.5 -1.5,1 -1.5,2.5 -1.5,2.5 -1.5,1.5 0.5,2.5 0.5,2.5 6.5,1 16.5,1 23,0 0,0 1.5,-1 0,-2.5 0,0 0.5,-1.5 -1,-2.5 -0.5,-2.5 -0.5,-2 0.5,-3.5 1,-2 2.5,-2 2.5,-4 -8.5,-1.5 -18.5,-1.5 -27,0 z"
       style="stroke-linecap:butt"
       id="path478" />
    <path
       d="M 11.5,30 C 15,29 30,29 33.5,30"
       style="fill:none"
       id="path480" />
    <path
       d="m 12,33.5 c 6,-1 15,-1 21,0"
       style="fill:none"
       id="path482" />
  </g>
  <g
     style="fill:none;fill-opacity:1;fill-rule:evenodd;stroke:#000000;stroke-width:1.5;stroke-linecap:round;stroke-linejoin:round;stroke-miterlimit:4;stroke-dasharray:none;stroke-opacity:1"
     transform="matrix(11.377778,0,0,11.377778,1024,0)"
     id="g496">
    <g
       style="fill:#ffffff;stroke:#000000;stroke-linecap:butt"
       id="g492">
      <path
         d="m 9,36 c 3.39,-0.97 10.11,0.43 13.5,-2 3.39,2.43 10.11,1.03 13.5,2 0,0 1.65,0.54 3,2 -0.68,0.97 -1.65,0.99 -3,0.5 -3.39,-0.97 -10.11,0.46 -13.5,-1 C 19.11,38.96 12.39,37.53 9,38.5 7.646,38.99 6.677,38.97 6,38 7.354,36.06 9,36 9,36 Z"
         id="path486" />
      <path
         d="m 15,32 c 2.5,2.5 12.5,2.5 15,0 0.5,-1.5 0,-2 0,-2 0,-2.5 -2.5,-4 -2.5,-4 5.5,-1.5 6,-11.5 -5,-15.5 -11,4 -10.5,14 -5,15.5 0,0 -2.5,1.5 -2.5,4 0,0 -0.5,0.5 0,2 z"
         id="path488" />
      <path
         d="m 25,8 a 2.5,2.5 0 1 1 -5,0 2.5,2.5 0 1 1 5,0 z"
         id="path490" />
    </g>
    <path
       d="m 17.5,26 h 10 M 15,30 H 30 M 22.5,15.5 v 5 M 20,18 h 5"
       style="fill:none;stroke:#000000;stroke-linejoin:miter"
       id="path494" />
  </g>
  <g
     style="fill:none;fill-opacity:1;fill-rule:evenodd;stroke:#000000;stroke-width:1.5;stroke-linecap:round;stroke-linejoin:round;stroke-miterlimit:4;stroke-dasharray:none;stroke-opacity:1"
     transform="matrix(11.377778,0,0,11.377778,1536,0)"
     id="g506">
    <path
       d="m 22,10 c 10.5,1 16.5,8 16,29 H 15 c 0,-9 10,-6.5 8,-21"
       style="fill:#ffffff;stroke:#000000"
       id="path498" />
    <path
       d="m 24,18 c 0.38,2.91 -5.55,7.37 -8,9 -3,2 -2.82,4.34 -5,4 -1.042,-0.94 1.41,-3.04 0,-3 -1,0 0.19,1.23 -1,2 -1,0 -4.003,1 -4,-4 0,-2 6,-12 6,-12 0,0 1.89,-1.9 2,-3.5 -0.73,-0.994 -0.5,-2 -0.5,-3 1,-1 3,2.5 3,2.5 h 2 c 0,0 0.78,-1.992 2.5,-3 1,0 1,3 1,3"
       style="fill:#ffffff;stroke:#000000"
       id="path500" />
    <path
       d="m 9.5,25.5 a 0.5,0.5 0 1 1 -1,0 0.5,0.5 0 1 1 1,0 z"
       style="fill:#000000;stroke:#000000"
       id="path502" />
    <path
       d="m 15,15.5 a 0.5,1.5 0 1 1 -1,0 0.5,1.5 0 1 1 1,0 z"
       transform="matrix(0.866,0.5,-0.5,0.866,9.693,-5.173)"
       style="fill:#000000;stroke:#000000"
       id="path504" />
  </g>
  <g
     style="fill:#ffffff;fill-opacity:1;fill-rule:evenodd;stroke:#000000;stroke-width:1.5;stroke-linecap:round;stroke-linejoin:round;stroke-miterlimit:4;stroke-dasharray:none;stroke-opacity:1"
     transform="matrix(11.377778,0,0,11.377778,0,512.00001)"
     id="g522">
    <path
       d="M 9,39 H 36 V 36 H 9 Z"
       style="stroke-linecap:butt"
       id="path508" />
    <path
       d="m 12,36 v -4 h 21 v 4 z"
       style="stroke-linecap:butt"
       id="path510" />
    <path
       d="M 11,14 V 9 h 4 v 2 h 5 V 9 h 5 v 2 h 5 V 9 h 4 v 5"
       style="stroke-linecap:butt"
       id="path512" />
    <path
       d="m 34,14 -3,3 H 14 l -3,-3"
       id="path514" />
    <path
       d="M 31,17 V 29.5 H 14 V 17"
       style="stroke-linecap:butt;stroke-linejoin:miter"
       id="path516" />
    <path
       d="m 31,29.5 1.5,2.5 h -20 L 14,29.5"
       id="path518" />
    <path
       d="M 11,14 H 34"
       style="fill:none;stroke:#000000;stroke-linejoin:miter"
       id="path520" />
  </g>
  <g
     transform="matrix(11.377778,0,0,11.377778,512.00001,512.00001)"
     id="g526">
    <path
       d="m 22,9 c -2.21,0 -4,1.79 -4,4 0,0.89 0.29,1.71 0.78,2.38 -1.95,1.12 -3.28,3.21 -3.28,5.62 0,2.03 0.94,3.84 2.41,5.03 -3,1.06 -7.41,5.55 -7.41,13.47 h 23 c 0,-7.92 -4.41,-12.41 -7.41,-13.47 1.47,-1.19 2.41,-3 2.41,-5.03 0,-2.41 -1.33,-4.5 -3.28,-5.62 C 25.71,14.71 26,13.89 26,13 26,10.79 24.21,9 22,9 Z"
       style="opacity:1;fill:#ffffff;fill-opacity:1;fill-rule:nonzero;stroke:#000000;stroke-width:1.5;stroke-linecap:round;stroke-linejoin:miter;stroke-miterlimit:4;stroke-dasharray:none;stroke-opacity:1"
       id="path524" />
  </g>
  <g
     style="fill:none;fill-opacity:1;fill-rule:evenodd;stroke:#000000;stroke-width:1.5;stroke-linecap:round;stroke-linejoin:round;stroke-miterlimit:4;stroke-dasharray:none;stroke-opacity:1"
     transform="matrix(11.377778,0,0,11.377778,0,1024)"
     id="g540">
    <path
       d="M 22.5,11.63 V 6"
       style="fill:none;stroke:#000000;stroke-linejoin:miter"
       id="path528" />
    <path
       d="m 22.5,25 c 0,0 4.5,-7.5 3,-10.5 0,0 -1,-2.5 -3,-2.5 -2,0 -3,2.5 -3,2.5 -1.5,3 3,10.5 3,10.5"
       style="fill:#000000;fill-opacity:1;stroke-linecap:butt;stroke-linejoin:miter"
       id="path530" />
    <path
       d="m 11.5,37 c 5.5,3.5 15.5,3.5 21,0 v -7 c 0,0 9,-4.5 6,-10.5 -4,-6.5 -13.5,-3.5 -16,4 V 27 23.5 C 19,16 9.5,13 6.5,19.5 c -3,6 5,10 5,10 z"
       style="fill:#000000;stroke:#000000"
       id="path532" />
    <path
       d="m 20,8 h 5"
       style="fill:none;stroke:#000000;stroke-linejoin:miter"
       id="path534" />
    <path
       d="m 32,29.5 c 0,0 8.5,-4 6.03,-9.65 C 34.15,14 25,18 22.5,24.5 l 0.01,2.1 -0.01,-2.1 C 20,18 9.906,14 6.997,19.85 c -2.497,5.65 4.853,9 4.853,9"
       style="fill:none;stroke:#ffffff"
       id="path536" />
    <path
       d="m 11.5,30 c 5.5,-3 15.5,-3 21,0 m -21,3.5 c 5.5,-3 15.5,-3 21,0 m -21,3.5 c 5.5,-3 15.5,-3 21,0"
       style="fill:none;stroke:#ffffff"
       id="path538" />
  </g>
  <g
     style="fill-opacity:1;fill-rule:evenodd;stroke:#000000;stroke-width:1.5;stroke-linecap:round;stroke-linejoin:round;stroke-miterlimit:4;stroke-dasharray:none;stroke-opacity:1"
     transform="matrix(11.377778,0,0,11.377778,512.00001,1024)"
     id="g568">
    <g
       style="fill:#000000;stroke:none"
       id="g552">
      <circle
         cx="6"
         cy="12"
         r="2.75"
         id="circle542" />
      <circle
         cx="14"
         cy="9"
         r="2.75"
         id="circle544" />
      <circle
         cx="22.5"
         cy="8"
         r="2.75"
         id="circle546" />
      <circle
         cx="31"
         cy="9"
         r="2.75"
         id="circle548" />
      <circle
         cx="39"
         cy="12"
         r="2.75"
         id="circle550" />
    </g>
    <path
       d="m 9,26 c 8.5,-1.5 21,-1.5 27,0 L 38.5,13.5 31,25 30.7,10.9 25.5,24.5 22.5,10 19.5,24.5 14.3,10.9 14,25 6.5,13.5 Z"
       style="stroke:#000000;stroke-linecap:butt"
       id="path554" />
    <path
       d="m 9,26 c 0,2 1.5,2 2.5,4 1,1.5 1,1 0.5,3.5 -1.5,1 -1.5,2.5 -1.5,2.5 -1.5,1.5 0.5,2.5 0.5,2.5 6.5,1 16.5,1 23,0 0,0 1.5,-1 0,-2.5 0,0 0.5,-1.5 -1,-2.5 -0.5,-2.5 -0.5,-2 0.5,-3.5 1,-2 2.5,-2 2.5,-4 -8.5,-1.5 -18.5,-1.5 -27,0 z"
       style="stroke-linecap:butt"
       id="path556" />
    <path
       d="m 11,38.5 a 35,35 1 0 0 23,0"
       style="fill:none;stroke:#000000;stroke-linecap:butt"
       id="path558" />
    <path
       d="m 11,29 a 35,35 1 0 1 23,0"
       style="fill:none;stroke:#ffffff"
       id="path560" />
    <path
       d="m 12.5,31.5 h 20"
       style="fill:none;stroke:#ffffff"
       id="path562" />
    <path
       d="m 11.5,34.5 a 35,35 1 0 0 22,0"
       style="fill:none;stroke:#ffffff"
       id="path564" />
    <path
       d="m 10.5,37.5 a 35,35 1 0 0 24,0"
       style="fill:none;stroke:#ffffff"
       id="path566" />
  </g>
  <g
     style="fill:none;fill-opacity:1;fill-rule:evenodd;stroke:#000000;stroke-width:1.5;stroke-linecap:round;stroke-linejoin:round;stroke-miterlimit:4;stroke-dasharray:none;stroke-opacity:1"
     transform="matrix(11.377778,0,0,11.377778,1024,1024)"
     id="g580">
    <g
       style="fill:#000000;stroke:#000000;stroke-linecap:butt"
       id="g576">
      <path
         d="m 9,36 c 3.39,-0.97 10.11,0.43 13.5,-2 3.39,2.43 10.11,1.03 13.5,2 0,0 1.65,0.54 3,2 -0.68,0.97 -1.65,0.99 -3,0.5 -3.39,-0.97 -10.11,0.46 -13.5,-1 C 19.11,38.96 12.39,37.53 9,38.5 7.646,38.99 6.677,38.97 6,38 7.354,36.06 9,36 9,36 Z"
         id="path570" />
      <path
         d="m 15,32 c 2.5,2.5 12.5,2.5 15,0 0.5,-1.5 0,-2 0,-2 0,-2.5 -2.5,-4 -2.5,-4 5.5,-1.5 6,-11.5 -5,-15.5 -11,4 -10.5,14 -5,15.5 0,0 -2.5,1.5 -2.5,4 0,0 -0.5,0.5 0,2 z"
         id="path572" />
      <path
         d="m 25,8 a 2.5,2.5 0 1 1 -5,0 2.5,2.5 0 1 1 5,0 z"
         id="path574" />
    </g>
    <path
       d="m 17.5,26 h 10 M 15,30 H 30 M 22.5,15.5 v 5 M 20,18 h 5"
       style="fill:none;stroke:#ffffff;stroke-linejoin:miter"
       id="path578" />
  </g>
  <g
     style="fill:none;fill-opacity:1;fill-rule:evenodd;stroke:#000000;stroke-width:1.5;stroke-linecap:round;stroke-linejoin:round;stroke-miterlimit:4;stroke-dasharray:none;stroke-opacity:1"
     transform="matrix(11.377778,0,0,11.377778,1536,1024)"
     id="g592">
    <path
       d="m 22,10 c 10.5,1 16.5,8 16,29 H 15 c 0,-9 10,-6.5 8,-21"
       style="fill:#000000;stroke:#000000"
       id="path582" />
    <path
       d="m 24,18 c 0.38,2.91 -5.55,7.37 -8,9 -3,2 -2.82,4.34 -5,4 -1.042,-0.94 1.41,-3.04 0,-3 -1,0 0.19,1.23 -1,2 -1,0 -4.003,1 -4,-4 0,-2 6,-12 6,-12 0,0 1.89,-1.9 2,-3.5 -0.73,-0.994 -0.5,-2 -0.5,-3 1,-1 3,2.5 3,2.5 h 2 c 0,0 0.78,-1.992 2.5,-3 1,0 1,3 1,3"
       style="fill:#000000;stroke:#000000"
       id="path584" />
    <path
       d="m 9.5,25.5 a 0.5,0.5 0 1 1 -1,0 0.5,0.5 0 1 1 1,0 z"
       style="fill:#ffffff;stroke:#ffffff"
       id="path586" />
    <path
       d="m 15,15.5 a 0.5,1.5 0 1 1 -1,0 0.5,1.5 0 1 1 1,0 z"
       transform="matrix(0.866,0.5,-0.5,0.866,9.693,-5.173)"
       style="fill:#ffffff;stroke:#ffffff"
       id="path588" />
    <path
       d="M 24.55,10.4 24.1,11.85 24.6,12 c 3.15,1 5.65,2.49 7.9,6.75 2.25,4.26 3.25,10.31 2.75,20.25 l -0.05,0.5 h 2.25 L 37.5,39 C 38,28.94 36.62,22.15 34.25,17.66 31.88,13.17 28.46,11.02 25.06,10.5 Z"
       style="fill:#ffffff;stroke:none"
       id="path590" />
  </g>
  <g
     style="fill-opacity:1;fill-rule:evenodd;stroke:#000000;stroke-width:1.5;stroke-linecap:round;stroke-linejoin:round;stroke-miterlimit:4;stroke-dasharray:none;stroke-opacity:1"
     transform="matrix(11.377778,0,0,11.377778,0,1536)"
     id="g616">
    <path
       d="M 9,39 H 36 V 36 H 9 Z"
       style="stroke-linecap:butt"
       id="path594" />
    <path
       d="M 12.5,32 14,29.5 h 17 l 1.5,2.5 z"
       style="stroke-linecap:butt"
       id="path596" />
    <path
       d="m 12,36 v -4 h 21 v 4 z"
       style="stroke-linecap:butt"
       id="path598" />
    <path
       d="m 14,29.5 v -13 h 17 v 13 z"
       style="stroke-linecap:butt;stroke-linejoin:miter"
       id="path600" />
    <path
       d="M 14,16.5 11,14 h 23 l -3,2.5 z"
       style="stroke-linecap:butt"
       id="path602" />
    <path
       d="M 11,14 V 9 h 4 v 2 h 5 V 9 h 5 v 2 h 5 V 9 h 4 v 5 z"
       style="stroke-linecap:butt"
       id="path604" />
    <path
       d="m 12,35.5 h 21 v 0"
       style="fill:none;stroke:#ffffff;stroke-width:1;stroke-linejoin:miter"
       id="path606" />
    <path
       d="M 13,31.5 H 32"
       style="fill:none;stroke:#ffffff;stroke-width:1;stroke-linejoin:miter"
       id="path608" />
    <path
       d="M 14,29.5 H 31"
       style="fill:none;stroke:#ffffff;stroke-width:1;stroke-linejoin:miter"
       id="path610" />
    <path
       d="M 14,16.5 H 31"
       style="fill:none;stroke:#ffffff;stroke-width:1;stroke-linejoin:miter"
       id="path612" />
    <path
       d="M 11,14 H 34"
       style="fill:none;stroke:#ffffff;stroke-width:1;stroke-linejoin:miter"
       id="path614" />
  </g>
  <g
     transform="matrix(11.377778,0,0,11.377778,512.00001,1536)"
     id="g620">
    <path
       d="m 22,9 c -2.21,0 -4,1.79 -4,4 0,0.89 0.29,1.71 0.78,2.38 -1.95,1.12 -3.28,3.21 -3.28,5.62 0,2.03 0.94,3.84 2.41,5.03 -3,1.06 -7.41,5.55 -7.41,13.47 h 23 c 0,-7.92 -4.41,-12.41 -7.41,-13.47 1.47,-1.19 2.41,-3 2.41,-5.03 0,-2.41 -1.33,-4.5 -3.28,-5.62 C 25.71,14.71 26,13.89 26,13 26,10.79 24.21,9 22,9 Z"
       style="opacity:1;fill:#000000;fill-opacity:1;fill-rule:nonzero;stroke:#000000;stroke-width:1.5;stroke-linecap:round;stroke-linejoin:miter;stroke-miterlimit:4;stroke-dasharray:none;stroke-opacity:1"
       id="path618" />
  </g>
</svg>
